M48
; DRILL file {KiCad 6.0.8-f2edbf62ab~116~ubuntu22.04.1} date zo 20 nov 2022 14:54:36 CET
; FORMAT={-:-/ absolute / inch / decimal}
; #@! TF.CreationDate,2022-11-20T14:54:36+01:00
; #@! TF.GenerationSoftware,Kicad,Pcbnew,6.0.8-f2edbf62ab~116~ubuntu22.04.1
; #@! TF.FileFunction,Plated,1,2,PTH
FMAT,2
INCH
; #@! TA.AperFunction,Plated,PTH,ComponentDrill
T1C0.0138
; #@! TA.AperFunction,Plated,PTH,ViaDrill
T2C0.0157
; #@! TA.AperFunction,Plated,PTH,ComponentDrill
T3C0.0236
; #@! TA.AperFunction,Plated,PTH,ComponentDrill
T4C0.1181
; #@! TA.AperFunction,Plated,PTH,ComponentDrill
T5C0.1260
%
G90
G05
T1
X2.2498Y3.0102
X2.2498Y2.96
X2.2498Y2.9098
X2.3Y3.0102
X2.3Y2.96
X2.3Y2.9098
X2.3502Y3.0102
X2.3502Y2.96
X2.3502Y2.9098
T2
X0.335Y1.27
X0.425Y3.8
X0.575Y1.275
X0.585Y0.605
X0.697Y1.349
X0.825Y1.28
X0.825Y0.68
X0.95Y1.325
X1.075Y1.29
X1.075Y0.68
X1.325Y0.675
X1.455Y1.32
X1.455Y0.68
X1.5001Y3.4193
X1.555Y3.83
X1.575Y1.325
X1.575Y0.65
X1.7Y1.325
X1.7175Y0.6925
X1.785Y1.11
X1.825Y1.325
X1.8267Y0.7991
X1.85Y2.95
X1.885Y1.68
X1.895Y3.12
X1.905Y3.2151
X1.9289Y3.4347
X1.945Y0.68
X1.95Y1.45
X1.955Y0.9592
X1.9588Y3.0862
X1.975Y1.02
X1.9767Y3.3574
X1.9842Y1.1246
X1.985Y2.97
X2.0Y1.2
X2.0Y1.1606
X2.0035Y1.0623
X2.015Y3.3425
X2.015Y3.3031
X2.015Y3.25
X2.015Y1.1
X2.016Y1.239
X2.0349Y3.0001
X2.041Y1.2694
X2.055Y3.22
X2.075Y3.33
X2.075Y1.33
X2.075Y1.29
X2.075Y0.68
X2.095Y3.6325
X2.095Y3.22
X2.1015Y3.38
X2.135Y3.22
X2.1685Y3.59
X2.1741Y2.7634
X2.185Y3.2454
X2.21Y2.92
X2.225Y2.87
X2.2296Y2.7087
X2.2552Y3.3298
X2.265Y3.57
X2.3137Y2.6887
X2.345Y1.45
X2.345Y1.41
X2.345Y1.37
X2.345Y1.33
X2.345Y1.29
X2.365Y1.49
X2.3796Y2.7746
X2.3835Y1.53
X2.3885Y0.155
X2.39Y2.87
X2.395Y2.36
X2.4035Y1.57
X2.445Y2.7214
X2.475Y3.08
X2.4806Y2.8497
X2.485Y2.7534
X2.505Y3.75
X2.515Y3.26
X2.52Y2.89
X2.52Y2.85
X2.5736Y3.5514
X2.575Y3.13
X2.575Y2.84
X2.585Y2.78
X2.625Y3.5215
X2.6456Y2.78
X2.675Y2.32
X2.685Y2.78
X2.7448Y2.6898
X2.745Y3.03
X2.7553Y2.3201
X2.775Y2.85
X2.7946Y2.3196
X2.805Y2.6
X2.8095Y2.4468
X2.8346Y2.2796
X2.8348Y2.3198
X2.8448Y1.9098
X2.865Y2.24
X2.875Y2.32
X2.885Y1.42
X2.885Y1.32
X2.885Y1.08
X2.895Y2.85
X2.9102Y1.9252
X2.9344Y2.85
X2.9434Y3.3984
X2.945Y3.08
X2.955Y2.65
X2.975Y1.48
X2.985Y1.5585
X2.995Y2.96
X3.055Y2.86
X3.0668Y2.2196
X3.0716Y2.7966
X3.075Y3.7
X3.075Y2.03
X3.095Y2.31
X3.1061Y2.2215
X3.115Y2.7966
X3.1248Y1.6402
X3.1332Y2.3818
X3.1455Y2.2215
X3.155Y2.78
X3.155Y1.25
X3.165Y2.63
X3.165Y2.47
X3.1848Y2.2198
X3.1958Y2.3692
X3.21Y0.875
X3.215Y1.0
X3.215Y0.09
X3.2252Y1.5098
X3.2373Y2.6923
X3.245Y2.86
T4
X2.525Y0.15
X2.8Y0.15
X3.075Y0.15
T5
X1.7Y3.725
T3
G00X3.1288Y3.47
M15
G01X3.1721Y3.47
M16
G05
G00X3.1288Y3.1298
M15
G01X3.1721Y3.1298
M16
G05
G00X3.3032Y3.47
M15
G01X3.3268Y3.47
M16
G05
G00X3.3032Y3.1298
M15
G01X3.3268Y3.1298
M16
G05
T0
M30
