%TF.GenerationSoftware,KiCad,Pcbnew,6.0.9-8da3e8f707~116~ubuntu22.04.1*%
%TF.CreationDate,2022-12-01T21:45:54+01:00*%
%TF.ProjectId,anesidoraMk1,616e6573-6964-46f7-9261-4d6b312e6b69,rev?*%
%TF.SameCoordinates,PX5ddd8a8PY82ce540*%
%TF.FileFunction,Soldermask,Top*%
%TF.FilePolarity,Negative*%
%FSLAX46Y46*%
G04 Gerber Fmt 4.6, Leading zero omitted, Abs format (unit mm)*
G04 Created by KiCad (PCBNEW 6.0.9-8da3e8f707~116~ubuntu22.04.1) date 2022-12-01 21:45:54*
%MOMM*%
%LPD*%
G01*
G04 APERTURE LIST*
G04 Aperture macros list*
%AMRoundRect*
0 Rectangle with rounded corners*
0 $1 Rounding radius*
0 $2 $3 $4 $5 $6 $7 $8 $9 X,Y pos of 4 corners*
0 Add a 4 corners polygon primitive as box body*
4,1,4,$2,$3,$4,$5,$6,$7,$8,$9,$2,$3,0*
0 Add four circle primitives for the rounded corners*
1,1,$1+$1,$2,$3*
1,1,$1+$1,$4,$5*
1,1,$1+$1,$6,$7*
1,1,$1+$1,$8,$9*
0 Add four rect primitives between the rounded corners*
20,1,$1+$1,$2,$3,$4,$5,0*
20,1,$1+$1,$4,$5,$6,$7,0*
20,1,$1+$1,$6,$7,$8,$9,0*
20,1,$1+$1,$8,$9,$2,$3,0*%
%AMFreePoly0*
4,1,22,0.550000,-0.750000,0.000000,-0.750000,0.000000,-0.745033,-0.079941,-0.743568,-0.215256,-0.701293,-0.333266,-0.622738,-0.424486,-0.514219,-0.481581,-0.384460,-0.499164,-0.250000,-0.500000,-0.250000,-0.500000,0.250000,-0.499164,0.250000,-0.499963,0.256109,-0.478152,0.396186,-0.417904,0.524511,-0.324060,0.630769,-0.204165,0.706417,-0.067858,0.745374,0.000000,0.744959,0.000000,0.750000,
0.550000,0.750000,0.550000,-0.750000,0.550000,-0.750000,$1*%
%AMFreePoly1*
4,1,20,0.000000,0.744959,0.073905,0.744508,0.209726,0.703889,0.328688,0.626782,0.421226,0.519385,0.479903,0.390333,0.500000,0.250000,0.500000,-0.250000,0.499851,-0.262216,0.476331,-0.402017,0.414519,-0.529596,0.319384,-0.634700,0.198574,-0.708877,0.061801,-0.746166,0.000000,-0.745033,0.000000,-0.750000,-0.550000,-0.750000,-0.550000,0.750000,0.000000,0.750000,0.000000,0.744959,
0.000000,0.744959,$1*%
G04 Aperture macros list end*
%ADD10RoundRect,0.250000X0.550000X-1.250000X0.550000X1.250000X-0.550000X1.250000X-0.550000X-1.250000X0*%
%ADD11RoundRect,0.140000X-0.140000X-0.170000X0.140000X-0.170000X0.140000X0.170000X-0.140000X0.170000X0*%
%ADD12RoundRect,0.218750X-0.218750X-0.256250X0.218750X-0.256250X0.218750X0.256250X-0.218750X0.256250X0*%
%ADD13R,0.800000X0.900000*%
%ADD14R,0.900000X0.800000*%
%ADD15RoundRect,0.135000X-0.135000X-0.185000X0.135000X-0.185000X0.135000X0.185000X-0.135000X0.185000X0*%
%ADD16RoundRect,0.135000X0.185000X-0.135000X0.185000X0.135000X-0.185000X0.135000X-0.185000X-0.135000X0*%
%ADD17C,0.900000*%
%ADD18R,1.000000X0.800000*%
%ADD19R,0.700000X1.500000*%
%ADD20RoundRect,0.250000X0.750000X0.250000X-0.750000X0.250000X-0.750000X-0.250000X0.750000X-0.250000X0*%
%ADD21RoundRect,0.250000X0.250000X-0.750000X0.250000X0.750000X-0.250000X0.750000X-0.250000X-0.750000X0*%
%ADD22C,0.650000*%
%ADD23R,1.450000X0.600000*%
%ADD24R,1.450000X0.300000*%
%ADD25O,2.100000X1.000000*%
%ADD26O,1.600000X1.000000*%
%ADD27R,3.600000X2.600000*%
%ADD28RoundRect,0.250000X-0.750000X-0.250000X0.750000X-0.250000X0.750000X0.250000X-0.750000X0.250000X0*%
%ADD29FreePoly0,90.000000*%
%ADD30R,1.500000X1.000000*%
%ADD31FreePoly1,90.000000*%
%ADD32C,5.000000*%
%ADD33R,5.000000X3.000000*%
%ADD34R,1.060000X0.650000*%
%ADD35RoundRect,0.140000X0.170000X-0.140000X0.170000X0.140000X-0.170000X0.140000X-0.170000X-0.140000X0*%
%ADD36RoundRect,0.135000X0.135000X0.185000X-0.135000X0.185000X-0.135000X-0.185000X0.135000X-0.185000X0*%
%ADD37RoundRect,0.250000X-0.550000X1.250000X-0.550000X-1.250000X0.550000X-1.250000X0.550000X1.250000X0*%
%ADD38RoundRect,0.140000X0.140000X0.170000X-0.140000X0.170000X-0.140000X-0.170000X0.140000X-0.170000X0*%
%ADD39R,0.450000X0.450000*%
%ADD40RoundRect,0.250000X-0.250000X0.750000X-0.250000X-0.750000X0.250000X-0.750000X0.250000X0.750000X0*%
%ADD41RoundRect,0.150000X0.150000X-0.650000X0.150000X0.650000X-0.150000X0.650000X-0.150000X-0.650000X0*%
%ADD42RoundRect,0.050000X-0.387500X-0.050000X0.387500X-0.050000X0.387500X0.050000X-0.387500X0.050000X0*%
%ADD43RoundRect,0.050000X-0.050000X-0.387500X0.050000X-0.387500X0.050000X0.387500X-0.050000X0.387500X0*%
%ADD44RoundRect,0.144000X-1.456000X-1.456000X1.456000X-1.456000X1.456000X1.456000X-1.456000X1.456000X0*%
%ADD45R,1.400000X1.200000*%
%ADD46RoundRect,0.140000X-0.170000X0.140000X-0.170000X-0.140000X0.170000X-0.140000X0.170000X0.140000X0*%
%ADD47RoundRect,0.150000X-0.825000X-0.150000X0.825000X-0.150000X0.825000X0.150000X-0.825000X0.150000X0*%
%ADD48RoundRect,0.218750X0.218750X0.256250X-0.218750X0.256250X-0.218750X-0.256250X0.218750X-0.256250X0*%
%ADD49C,3.200000*%
%ADD50C,4.000000*%
G04 APERTURE END LIST*
D10*
%TO.C,C16*%
X36703000Y61046000D03*
X36703000Y65446000D03*
%TD*%
D11*
%TO.C,C21*%
X71275000Y23495000D03*
X72235000Y23495000D03*
%TD*%
%TO.C,C22*%
X71275000Y29845000D03*
X72235000Y29845000D03*
%TD*%
%TO.C,C24*%
X71275000Y19304000D03*
X72235000Y19304000D03*
%TD*%
D12*
%TO.C,D2*%
X7467500Y29210000D03*
X9042500Y29210000D03*
%TD*%
%TO.C,D3*%
X13817500Y29210000D03*
X15392500Y29210000D03*
%TD*%
%TO.C,D4*%
X20167500Y29210000D03*
X21742500Y29210000D03*
%TD*%
%TO.C,D5*%
X26517500Y29210000D03*
X28092500Y29210000D03*
%TD*%
%TO.C,D6*%
X32867500Y29210000D03*
X34442500Y29210000D03*
%TD*%
%TO.C,D7*%
X39217500Y29210000D03*
X40792500Y29210000D03*
%TD*%
%TO.C,D8*%
X45567500Y29210000D03*
X47142500Y29210000D03*
%TD*%
%TO.C,D17*%
X7467500Y45720000D03*
X9042500Y45720000D03*
%TD*%
%TO.C,D18*%
X13817500Y45720000D03*
X15392500Y45720000D03*
%TD*%
%TO.C,D19*%
X20167500Y45720000D03*
X21742500Y45720000D03*
%TD*%
%TO.C,D20*%
X26517500Y45720000D03*
X28092500Y45720000D03*
%TD*%
%TO.C,D21*%
X39217500Y45720000D03*
X40792500Y45720000D03*
%TD*%
%TO.C,D22*%
X45567500Y45720000D03*
X47142500Y45720000D03*
%TD*%
D13*
%TO.C,Q1*%
X43241000Y65516000D03*
X41341000Y65516000D03*
X42291000Y63516000D03*
%TD*%
D14*
%TO.C,Q2*%
X76597000Y65212000D03*
X76597000Y63312000D03*
X78597000Y64262000D03*
%TD*%
D15*
%TO.C,R7*%
X44575000Y60960000D03*
X45595000Y60960000D03*
%TD*%
D16*
%TO.C,R15*%
X10541000Y28700000D03*
X10541000Y29720000D03*
%TD*%
%TO.C,R16*%
X16891000Y28700000D03*
X16891000Y29720000D03*
%TD*%
%TO.C,R17*%
X23241000Y28700000D03*
X23241000Y29720000D03*
%TD*%
%TO.C,R18*%
X29591000Y28700000D03*
X29591000Y29720000D03*
%TD*%
%TO.C,R19*%
X35941000Y28700000D03*
X35941000Y29720000D03*
%TD*%
%TO.C,R20*%
X42291000Y28192000D03*
X42291000Y29212000D03*
%TD*%
%TO.C,R21*%
X48387000Y26414000D03*
X48387000Y27434000D03*
%TD*%
D15*
%TO.C,R29*%
X71245000Y27305000D03*
X72265000Y27305000D03*
%TD*%
D16*
%TO.C,R31*%
X10795000Y45210000D03*
X10795000Y46230000D03*
%TD*%
%TO.C,R32*%
X17145000Y45210000D03*
X17145000Y46230000D03*
%TD*%
%TO.C,R33*%
X23495000Y45210000D03*
X23495000Y46230000D03*
%TD*%
%TO.C,R34*%
X29845000Y45210000D03*
X29845000Y46230000D03*
%TD*%
%TO.C,R35*%
X42545000Y45210000D03*
X42545000Y46230000D03*
%TD*%
%TO.C,R36*%
X48895000Y45210000D03*
X48895000Y46230000D03*
%TD*%
D15*
%TO.C,R38*%
X77087000Y60452000D03*
X78107000Y60452000D03*
%TD*%
D17*
%TO.C,SW1*%
X70715000Y95326000D03*
D18*
X65565000Y94216000D03*
X72865000Y94216000D03*
X72865000Y96426000D03*
X65565000Y96426000D03*
D17*
X67715000Y95326000D03*
D19*
X71465000Y93566000D03*
X68465000Y93566000D03*
X66965000Y93566000D03*
%TD*%
D20*
%TO.C,SW3*%
X62055000Y93115000D03*
X56055000Y93115000D03*
X56055000Y96115000D03*
X62055000Y96115000D03*
%TD*%
D21*
%TO.C,SW5*%
X6755000Y17320000D03*
X6755000Y23320000D03*
X9755000Y17320000D03*
X9755000Y23320000D03*
%TD*%
%TO.C,SW7*%
X19455000Y17320000D03*
X19455000Y23320000D03*
X22455000Y23320000D03*
X22455000Y17320000D03*
%TD*%
%TO.C,SW8*%
X25805000Y17320000D03*
X25805000Y23320000D03*
X28805000Y23320000D03*
X28805000Y17320000D03*
%TD*%
%TO.C,SW9*%
X32155000Y17320000D03*
X32155000Y23320000D03*
X35155000Y23320000D03*
X35155000Y17320000D03*
%TD*%
%TO.C,SW10*%
X38505000Y23320000D03*
X38505000Y17320000D03*
X41505000Y17320000D03*
X41505000Y23320000D03*
%TD*%
%TO.C,SW11*%
X44855000Y23320000D03*
X44855000Y17320000D03*
X47855000Y17320000D03*
X47855000Y23320000D03*
%TD*%
%TO.C,SW15*%
X6755000Y33830000D03*
X6755000Y39830000D03*
X9755000Y33830000D03*
X9755000Y39830000D03*
%TD*%
%TO.C,SW16*%
X13105000Y33830000D03*
X13105000Y39830000D03*
X16105000Y33830000D03*
X16105000Y39830000D03*
%TD*%
%TO.C,SW17*%
X19455000Y33830000D03*
X19455000Y39830000D03*
X22455000Y39830000D03*
X22455000Y33830000D03*
%TD*%
%TO.C,SW18*%
X25805000Y33830000D03*
X25805000Y39830000D03*
X28805000Y33830000D03*
X28805000Y39830000D03*
%TD*%
%TO.C,SW19*%
X38505000Y33830000D03*
X38505000Y39830000D03*
X41505000Y39830000D03*
X41505000Y33830000D03*
%TD*%
%TO.C,SW20*%
X44855000Y33830000D03*
X44855000Y39830000D03*
X47855000Y33830000D03*
X47855000Y39830000D03*
%TD*%
D22*
%TO.C,J1*%
X80551000Y86708000D03*
X80551000Y80928000D03*
D23*
X79106000Y80568000D03*
X79106000Y81368000D03*
D24*
X79106000Y82568000D03*
X79106000Y83568000D03*
X79106000Y84068000D03*
X79106000Y85068000D03*
D23*
X79106000Y86268000D03*
X79106000Y87068000D03*
X79106000Y87068000D03*
X79106000Y86268000D03*
D24*
X79106000Y85568000D03*
X79106000Y84568000D03*
X79106000Y83068000D03*
X79106000Y82068000D03*
D23*
X79106000Y81368000D03*
X79106000Y80568000D03*
D25*
X80021000Y88138000D03*
D26*
X84201000Y79498000D03*
D25*
X80021000Y79498000D03*
D26*
X84201000Y88138000D03*
%TD*%
D27*
%TO.C,BT1*%
X18161000Y57994000D03*
X18161000Y87294000D03*
%TD*%
D15*
%TO.C,R23*%
X71245000Y20955000D03*
X72265000Y20955000D03*
%TD*%
%TO.C,R43*%
X71753000Y72390000D03*
X72773000Y72390000D03*
%TD*%
%TO.C,R42*%
X71753000Y71120000D03*
X72773000Y71120000D03*
%TD*%
D21*
%TO.C,SW21*%
X51205000Y39830000D03*
X51205000Y33830000D03*
X54205000Y39830000D03*
X54205000Y33830000D03*
%TD*%
%TO.C,SW12*%
X51205000Y23320000D03*
X51205000Y17320000D03*
X54205000Y23320000D03*
X54205000Y17320000D03*
%TD*%
D16*
%TO.C,R37*%
X53975000Y43305000D03*
X53975000Y44325000D03*
%TD*%
D12*
%TO.C,D23*%
X51917500Y45720000D03*
X53492500Y45720000D03*
%TD*%
%TO.C,D9*%
X51917500Y29210000D03*
X53492500Y29210000D03*
%TD*%
D21*
%TO.C,SW6*%
X13105000Y23320000D03*
X13105000Y17320000D03*
X16105000Y17320000D03*
X16105000Y23320000D03*
%TD*%
D28*
%TO.C,SW13*%
X81105000Y23725000D03*
X75105000Y23725000D03*
X81105000Y20725000D03*
X75105000Y20725000D03*
%TD*%
%TO.C,SW22*%
X81105000Y36425000D03*
X75105000Y36425000D03*
X75105000Y33425000D03*
X81105000Y33425000D03*
%TD*%
D15*
%TO.C,R41*%
X71245000Y33655000D03*
X72265000Y33655000D03*
%TD*%
D11*
%TO.C,C23*%
X71275000Y36195000D03*
X72235000Y36195000D03*
%TD*%
D28*
%TO.C,SW14*%
X75105000Y30075000D03*
X81105000Y30075000D03*
X81105000Y27075000D03*
X75105000Y27075000D03*
%TD*%
D29*
%TO.C,JP1*%
X81915000Y63216000D03*
D30*
X81915000Y64516000D03*
D31*
X81915000Y65816000D03*
%TD*%
D16*
%TO.C,R2*%
X73787000Y80770000D03*
X73787000Y81790000D03*
%TD*%
%TO.C,R3*%
X73787000Y85850000D03*
X73787000Y86870000D03*
%TD*%
%TO.C,R45*%
X78105000Y8634000D03*
X78105000Y9654000D03*
%TD*%
%TO.C,R44*%
X64135000Y8634000D03*
X64135000Y9654000D03*
%TD*%
D32*
%TO.C,TP3*%
X64135000Y3810000D03*
D33*
X64135000Y2310000D03*
X64135000Y2310000D03*
%TD*%
%TO.C,TP5*%
X71120000Y2310000D03*
X71120000Y2310000D03*
D32*
X71120000Y3810000D03*
%TD*%
%TO.C,TP4*%
X78105000Y3810000D03*
D33*
X78105000Y2310000D03*
X78105000Y2310000D03*
%TD*%
D34*
%TO.C,U1*%
X66337000Y88072000D03*
X66337000Y87122000D03*
X66337000Y86172000D03*
X68537000Y86172000D03*
X68537000Y88072000D03*
%TD*%
D35*
%TO.C,C12*%
X64897000Y86642000D03*
X64897000Y87602000D03*
%TD*%
D15*
%TO.C,R1*%
X71245000Y78740000D03*
X72265000Y78740000D03*
%TD*%
D36*
%TO.C,R12*%
X77091000Y47879000D03*
X76071000Y47879000D03*
%TD*%
%TO.C,R13*%
X77091000Y45339000D03*
X76071000Y45339000D03*
%TD*%
%TO.C,R14*%
X77091000Y46609000D03*
X76071000Y46609000D03*
%TD*%
D20*
%TO.C,SW2*%
X82883000Y73684000D03*
X76883000Y73684000D03*
X82883000Y76684000D03*
X76883000Y76684000D03*
%TD*%
D37*
%TO.C,C25*%
X35941000Y88560000D03*
X35941000Y84160000D03*
%TD*%
D38*
%TO.C,C14*%
X72235000Y77470000D03*
X71275000Y77470000D03*
%TD*%
%TO.C,C15*%
X40231000Y81026000D03*
X39271000Y81026000D03*
%TD*%
D39*
%TO.C,D1*%
X78101000Y46994000D03*
X78871000Y46994000D03*
X78871000Y46224000D03*
X78101000Y46224000D03*
%TD*%
D14*
%TO.C,Q3*%
X76597000Y69022000D03*
X76597000Y67122000D03*
X78597000Y68072000D03*
%TD*%
D40*
%TO.C,SW4*%
X40743000Y72438000D03*
X40743000Y78438000D03*
X37743000Y78438000D03*
X37743000Y72438000D03*
%TD*%
D15*
%TO.C,R4*%
X51560000Y77724000D03*
X52580000Y77724000D03*
%TD*%
D16*
%TO.C,R5*%
X60325000Y82294000D03*
X60325000Y83314000D03*
%TD*%
%TO.C,R6*%
X59055000Y82294000D03*
X59055000Y83314000D03*
%TD*%
D15*
%TO.C,R8*%
X51560000Y78994000D03*
X52580000Y78994000D03*
%TD*%
%TO.C,R9*%
X57783000Y64897000D03*
X58803000Y64897000D03*
%TD*%
D41*
%TO.C,U2*%
X42926000Y71838000D03*
X44196000Y71838000D03*
X45466000Y71838000D03*
X46736000Y71838000D03*
X46736000Y79038000D03*
X45466000Y79038000D03*
X44196000Y79038000D03*
X42926000Y79038000D03*
%TD*%
D42*
%TO.C,U3*%
X54982500Y77784000D03*
X54982500Y77384000D03*
X54982500Y76984000D03*
X54982500Y76584000D03*
X54982500Y76184000D03*
X54982500Y75784000D03*
X54982500Y75384000D03*
X54982500Y74984000D03*
X54982500Y74584000D03*
X54982500Y74184000D03*
X54982500Y73784000D03*
X54982500Y73384000D03*
X54982500Y72984000D03*
X54982500Y72584000D03*
D43*
X55820000Y71746500D03*
X56220000Y71746500D03*
X56620000Y71746500D03*
X57020000Y71746500D03*
X57420000Y71746500D03*
X57820000Y71746500D03*
X58220000Y71746500D03*
X58620000Y71746500D03*
X59020000Y71746500D03*
X59420000Y71746500D03*
X59820000Y71746500D03*
X60220000Y71746500D03*
X60620000Y71746500D03*
X61020000Y71746500D03*
D42*
X61857500Y72584000D03*
X61857500Y72984000D03*
X61857500Y73384000D03*
X61857500Y73784000D03*
X61857500Y74184000D03*
X61857500Y74584000D03*
X61857500Y74984000D03*
X61857500Y75384000D03*
X61857500Y75784000D03*
X61857500Y76184000D03*
X61857500Y76584000D03*
X61857500Y76984000D03*
X61857500Y77384000D03*
X61857500Y77784000D03*
D43*
X61020000Y78621500D03*
X60620000Y78621500D03*
X60220000Y78621500D03*
X59820000Y78621500D03*
X59420000Y78621500D03*
X59020000Y78621500D03*
X58620000Y78621500D03*
X58220000Y78621500D03*
X57820000Y78621500D03*
X57420000Y78621500D03*
X57020000Y78621500D03*
X56620000Y78621500D03*
X56220000Y78621500D03*
X55820000Y78621500D03*
D44*
X58420000Y75184000D03*
%TD*%
D45*
%TO.C,Y1*%
X58463000Y61507000D03*
X60663000Y61507000D03*
X60663000Y63207000D03*
X58463000Y63207000D03*
%TD*%
D35*
%TO.C,C1*%
X57785000Y82324000D03*
X57785000Y83284000D03*
%TD*%
%TO.C,C2*%
X56515000Y82324000D03*
X56515000Y83284000D03*
%TD*%
D11*
%TO.C,C3*%
X63274000Y79502000D03*
X64234000Y79502000D03*
%TD*%
D46*
%TO.C,C4*%
X61595000Y83284000D03*
X61595000Y82324000D03*
%TD*%
%TO.C,C5*%
X62865000Y83284000D03*
X62865000Y82324000D03*
%TD*%
D35*
%TO.C,C7*%
X60325000Y67084000D03*
X60325000Y68044000D03*
%TD*%
%TO.C,C8*%
X66421000Y71910000D03*
X66421000Y72870000D03*
%TD*%
%TO.C,C9*%
X58420000Y67084000D03*
X58420000Y68044000D03*
%TD*%
D46*
%TO.C,C10*%
X49784000Y75410000D03*
X49784000Y74450000D03*
%TD*%
D11*
%TO.C,C11*%
X49685000Y76454000D03*
X50645000Y76454000D03*
%TD*%
%TO.C,C17*%
X59083000Y59817000D03*
X60043000Y59817000D03*
%TD*%
D38*
%TO.C,C18*%
X61313000Y64897000D03*
X60353000Y64897000D03*
%TD*%
D46*
%TO.C,C13*%
X69977000Y87602000D03*
X69977000Y86642000D03*
%TD*%
D47*
%TO.C,U5*%
X68010000Y68961000D03*
X68010000Y67691000D03*
X68010000Y66421000D03*
X68010000Y65151000D03*
X68010000Y63881000D03*
X68010000Y62611000D03*
X68010000Y61341000D03*
X68010000Y60071000D03*
X72960000Y60071000D03*
X72960000Y61341000D03*
X72960000Y62611000D03*
X72960000Y63881000D03*
X72960000Y65151000D03*
X72960000Y66421000D03*
X72960000Y67691000D03*
X72960000Y68961000D03*
%TD*%
%TO.C,U4*%
X42356000Y86360000D03*
X42356000Y85090000D03*
X42356000Y83820000D03*
X42356000Y82550000D03*
X47306000Y82550000D03*
X47306000Y83820000D03*
X47306000Y85090000D03*
X47306000Y86360000D03*
%TD*%
D15*
%TO.C,R10*%
X49401000Y82550000D03*
X50421000Y82550000D03*
%TD*%
%TO.C,R11*%
X49401000Y83820000D03*
X50421000Y83820000D03*
%TD*%
D11*
%TO.C,C20*%
X49431000Y86360000D03*
X50391000Y86360000D03*
%TD*%
D48*
%TO.C,D25*%
X82956500Y70612000D03*
X81381500Y70612000D03*
%TD*%
%TO.C,D26*%
X42570500Y60960000D03*
X40995500Y60960000D03*
%TD*%
D49*
%TO.C,REF\u002A\u002A*%
X4445000Y94615000D03*
%TD*%
D50*
%TO.C,REF\u002A\u002A*%
X43180000Y94615000D03*
%TD*%
D49*
%TO.C,REF\u002A\u002A*%
X83185000Y94615000D03*
%TD*%
D15*
%TO.C,R24*%
X52195000Y9779000D03*
X53215000Y9779000D03*
%TD*%
%TO.C,R25*%
X45845000Y9779000D03*
X46865000Y9779000D03*
%TD*%
%TO.C,R26*%
X39495000Y9779000D03*
X40515000Y9779000D03*
%TD*%
%TO.C,R27*%
X33145000Y9779000D03*
X34165000Y9779000D03*
%TD*%
%TO.C,R28*%
X26795000Y9779000D03*
X27815000Y9779000D03*
%TD*%
%TO.C,R30*%
X20445000Y9779000D03*
X21465000Y9779000D03*
%TD*%
%TO.C,R39*%
X14095000Y9779000D03*
X15115000Y9779000D03*
%TD*%
%TO.C,R40*%
X7745000Y9779000D03*
X8765000Y9779000D03*
%TD*%
D12*
%TO.C,D10*%
X51917500Y7874000D03*
X53492500Y7874000D03*
%TD*%
%TO.C,D11*%
X45567500Y7874000D03*
X47142500Y7874000D03*
%TD*%
%TO.C,D12*%
X39217500Y7874000D03*
X40792500Y7874000D03*
%TD*%
%TO.C,D13*%
X32867500Y7874000D03*
X34442500Y7874000D03*
%TD*%
%TO.C,D14*%
X26517500Y7874000D03*
X28092500Y7874000D03*
%TD*%
%TO.C,D15*%
X20167500Y7874000D03*
X21742500Y7874000D03*
%TD*%
%TO.C,D16*%
X13817500Y7874000D03*
X15392500Y7874000D03*
%TD*%
%TO.C,D24*%
X7467500Y7874000D03*
X9042500Y7874000D03*
%TD*%
D16*
%TO.C,R22*%
X54229000Y26668000D03*
X54229000Y27688000D03*
%TD*%
M02*
