%TF.GenerationSoftware,KiCad,Pcbnew,6.0.9-8da3e8f707~116~ubuntu22.04.1*%
%TF.CreationDate,2022-12-01T21:45:54+01:00*%
%TF.ProjectId,anesidoraMk1,616e6573-6964-46f7-9261-4d6b312e6b69,rev?*%
%TF.SameCoordinates,PX5ddd8a8PY82ce540*%
%TF.FileFunction,Profile,NP*%
%FSLAX46Y46*%
G04 Gerber Fmt 4.6, Leading zero omitted, Abs format (unit mm)*
G04 Created by KiCad (PCBNEW 6.0.9-8da3e8f707~116~ubuntu22.04.1) date 2022-12-01 21:45:54*
%MOMM*%
%LPD*%
G01*
G04 APERTURE LIST*
%ADD10C,0.200000*%
G04 APERTURE END LIST*
D10*
X807862Y60691905D02*
X786602Y60469738D01*
X764674Y60247723D01*
X742340Y60025826D01*
X719860Y59804011D01*
X697498Y59582242D01*
X675513Y59360487D01*
X654169Y59138708D01*
X633726Y58916872D01*
X614446Y58694943D01*
X596592Y58472886D01*
X585610Y58324759D01*
X465656Y49441817D02*
X474250Y49166074D01*
X480473Y48890483D01*
X484744Y48615009D01*
X487480Y48339617D01*
X489100Y48064272D01*
X490024Y47788939D01*
X490669Y47513582D01*
X491454Y47238167D01*
X492798Y46962658D01*
X495119Y46687020D01*
X497416Y46503172D01*
X786696Y95084207D02*
X921994Y94927441D01*
X982142Y94729000D01*
X994823Y94586779D01*
X35429457Y98777780D02*
X35173976Y98773099D01*
X34918206Y98767423D01*
X34662187Y98761416D01*
X34405962Y98755737D01*
X34149571Y98751051D01*
X33893056Y98748016D01*
X33636458Y98747296D01*
X33379819Y98749552D01*
X46432597Y98890672D02*
X46226728Y98858922D01*
X46160972Y98837747D01*
X50172054Y98865975D02*
X49972561Y98806262D01*
X49766737Y98769243D01*
X49628762Y98756615D01*
X87139630Y44273614D02*
X87141903Y44478477D01*
X87164812Y44681268D01*
X87189024Y44774552D01*
X66502130Y98982398D02*
X66298719Y98985926D01*
X66095226Y98987083D01*
X65891570Y98986594D01*
X65687671Y98985186D01*
X65483450Y98983584D01*
X65278826Y98982515D01*
X65196847Y98982398D01*
X871360Y22196774D02*
X857473Y21965596D01*
X843621Y21734399D01*
X829840Y21503166D01*
X816163Y21271879D01*
X802626Y21040523D01*
X789263Y20809078D01*
X776110Y20577528D01*
X763202Y20345855D01*
X750573Y20114043D01*
X738258Y19882073D01*
X730240Y19727330D01*
X86878577Y47748488D02*
X86851905Y47952394D01*
X86864198Y48184817D01*
X86907413Y48412621D01*
X86964932Y48637136D01*
X87005572Y48796227D01*
X39578127Y405706D02*
X39812630Y422739D01*
X40047740Y440799D01*
X40283314Y457931D01*
X40519215Y472178D01*
X40755302Y481586D01*
X40834015Y483307D01*
X87062029Y41539586D02*
X87018526Y41756515D01*
X86992325Y41974232D01*
X86985100Y42192041D01*
X86998524Y42409246D01*
X87034270Y42625149D01*
X87051435Y42696707D01*
X87259583Y80408639D02*
X87290518Y80612912D01*
X87265433Y80827272D01*
X87234886Y80948399D01*
X6036010Y98171013D02*
X5802919Y98212455D01*
X5578743Y98271485D01*
X5366710Y98354320D01*
X5170051Y98467177D01*
X4991995Y98616275D01*
X4835773Y98807831D01*
X4780122Y98897734D01*
X68170762Y98950638D02*
X67970586Y98929356D01*
X67768212Y98918402D01*
X67565580Y98917783D01*
X67525194Y98918900D01*
X86659857Y5143509D02*
X86818144Y5277655D01*
X86975727Y5415868D01*
X87121995Y5542149D01*
X850194Y53280041D02*
X840257Y53038176D01*
X818469Y52798493D01*
X786927Y52560588D01*
X747730Y52324057D01*
X702977Y52088495D01*
X654765Y51853500D01*
X634983Y51759569D01*
X61185766Y98894203D02*
X60976370Y98953152D01*
X60764910Y99004478D01*
X60551390Y99038492D01*
X60508439Y99042364D01*
X40784621Y98929472D02*
X40569750Y98929901D01*
X40355451Y98934637D01*
X40141278Y98941904D01*
X39926788Y98949928D01*
X39803910Y98954169D01*
X733771Y89908942D02*
X626177Y89727808D01*
X569563Y89531422D01*
X557382Y89390369D01*
X83622445Y98047528D02*
X83386327Y98064578D01*
X83150349Y98081207D01*
X82914650Y98099229D01*
X82679370Y98120459D01*
X82444649Y98146709D01*
X82366557Y98156888D01*
X6706296Y98312111D02*
X6506210Y98217570D01*
X6297086Y98167595D01*
X6080204Y98165426D01*
X6036010Y98171013D01*
X74446692Y98883609D02*
X74228404Y98881200D01*
X74010121Y98880860D01*
X73791835Y98892924D01*
X73748177Y98897734D01*
X75942466Y98887141D02*
X75709066Y98883382D01*
X75475313Y98881638D01*
X75241368Y98881345D01*
X75007393Y98881940D01*
X74773548Y98882857D01*
X74539995Y98883533D01*
X74446692Y98883609D01*
X86790383Y93750697D02*
X86718430Y93963612D01*
X86645370Y94176086D01*
X86570095Y94387674D01*
X86491498Y94597930D01*
X86444668Y94717305D01*
X455084Y69045681D02*
X463103Y68832647D01*
X487837Y68623024D01*
X525328Y68416083D01*
X571621Y68211099D01*
X622762Y68007344D01*
X674794Y67804089D01*
X694971Y67722764D01*
X87185492Y26250209D02*
X87083707Y26483442D01*
X87013508Y26719734D01*
X86970429Y26958506D01*
X86950006Y27199180D01*
X86947774Y27441177D01*
X86959267Y27683919D01*
X86980021Y27926826D01*
X87005572Y28169321D01*
X87199596Y18767785D02*
X87224923Y18968819D01*
X87221960Y19169728D01*
X87191345Y19372444D01*
X87181961Y19413374D01*
X776103Y62688618D02*
X814511Y62439751D01*
X840600Y62190594D01*
X855608Y61941189D01*
X860777Y61691578D01*
X857346Y61441803D01*
X846556Y61191904D01*
X829648Y60941925D01*
X807862Y60691905D01*
X4780122Y98897734D02*
X4579116Y98914795D01*
X4519070Y98925941D01*
X511519Y85054738D02*
X522760Y84852057D01*
X533609Y84647962D01*
X539547Y84443096D01*
X539748Y84402086D01*
X9285101Y497431D02*
X9512957Y482777D01*
X9740206Y475471D01*
X9966988Y476910D01*
X10193445Y488488D01*
X10419718Y511599D01*
X10495126Y522107D01*
X76760913Y98753083D02*
X76562586Y98819173D01*
X76359626Y98861122D01*
X76152698Y98882567D01*
X75942466Y98887141D01*
X28462096Y98820112D02*
X28265295Y98777670D01*
X28067889Y98738017D01*
X27870018Y98701710D01*
X27671821Y98669310D01*
X27473438Y98641375D01*
X27407294Y98633151D01*
X86292954Y96428290D02*
X86176444Y96592642D01*
X86050324Y96770621D01*
X85932023Y96937364D01*
X85802699Y97119000D01*
X85739112Y97207915D01*
X79170370Y98520260D02*
X79006812Y98401433D01*
X78941077Y98357974D01*
X87076132Y18129258D02*
X87112580Y18328512D01*
X87152779Y18528546D01*
X87192202Y18728060D01*
X87199596Y18767785D01*
X47628518Y98841278D02*
X47405896Y98868006D01*
X47182530Y98892873D01*
X46958419Y98910299D01*
X46733563Y98914702D01*
X46507962Y98900504D01*
X46432597Y98890672D01*
X87065538Y49530011D02*
X87028820Y49778878D01*
X87000000Y50028033D01*
X86978042Y50277435D01*
X86961913Y50527044D01*
X86950579Y50776818D01*
X86943007Y51026717D01*
X86938162Y51276699D01*
X86935012Y51526724D01*
X45494217Y458609D02*
X45704537Y452740D01*
X45914717Y444356D01*
X46124618Y435412D01*
X46334100Y427861D01*
X46543024Y423659D01*
X46612517Y423340D01*
X7150800Y98566122D02*
X6968704Y98467474D01*
X6789335Y98360642D01*
X6706296Y98312111D01*
X31231414Y553866D02*
X31437154Y549324D01*
X31555964Y564460D01*
X811372Y96671707D02*
X722634Y96487691D01*
X654186Y96297252D01*
X604033Y96101055D01*
X570178Y95899760D01*
X557382Y95782701D01*
X4519070Y98925941D02*
X4277191Y98961118D01*
X4043209Y98965246D01*
X3816421Y98941014D01*
X3596123Y98891109D01*
X3381612Y98818217D01*
X3172185Y98725027D01*
X2967140Y98614226D01*
X2765774Y98488500D01*
X87012635Y84522040D02*
X86953134Y84733693D01*
X86931684Y84943416D01*
X86940746Y85152316D01*
X86972785Y85361499D01*
X86998510Y85481585D01*
X87012635Y6741581D02*
X86973482Y6940799D01*
X86956425Y7140677D01*
X86959247Y7341883D01*
X86979730Y7545082D01*
X86998510Y7662347D01*
X86998510Y7662347D02*
X87027679Y7869719D01*
X87045775Y8078627D01*
X87055868Y8288373D01*
X87061027Y8498258D01*
X87064322Y8707586D01*
X87065538Y8777116D01*
X86977344Y62233543D02*
X87012202Y62437121D01*
X87038165Y62641036D01*
X87056384Y62845254D01*
X87068011Y63049739D01*
X87074195Y63254457D01*
X87076089Y63459373D01*
X87074845Y63664452D01*
X87071612Y63869659D01*
X87067543Y64074959D01*
X87063788Y64280318D01*
X87062029Y64417238D01*
X51403245Y98936535D02*
X51219794Y98950638D01*
X39253577Y409237D02*
X39455282Y399691D01*
X39578127Y405706D01*
X54003215Y99035301D02*
X53805980Y98988146D01*
X53608116Y98944332D01*
X53410025Y98901520D01*
X53212112Y98857367D01*
X53014781Y98809532D01*
X52818436Y98755673D01*
X52740265Y98731918D01*
X645577Y93203896D02*
X603208Y92996045D01*
X627831Y92796623D01*
X642045Y92752330D01*
X87132567Y54938079D02*
X87132315Y55156403D01*
X87131712Y55374799D01*
X87130985Y55593257D01*
X87130362Y55811766D01*
X87130069Y56030315D01*
X87130334Y56248896D01*
X87131385Y56467497D01*
X87133449Y56686108D01*
X87136754Y56904718D01*
X87141526Y57123319D01*
X87147994Y57341898D01*
X87156384Y57560446D01*
X87166925Y57778952D01*
X87179843Y57997407D01*
X87195365Y58215799D01*
X87213721Y58434119D01*
X553851Y78235537D02*
X460796Y78014554D01*
X394405Y77791423D01*
X351368Y77566064D01*
X328371Y77338398D01*
X322104Y77108342D01*
X329254Y76875816D01*
X335130Y76782095D01*
X10911401Y550335D02*
X11134555Y559015D01*
X11357559Y567292D01*
X11580446Y575325D01*
X11803252Y583271D01*
X12026011Y591285D01*
X12248759Y599526D01*
X12471530Y608151D01*
X12694359Y617316D01*
X12917281Y627179D01*
X13140331Y637896D01*
X13289120Y645592D01*
X86843287Y88441396D02*
X86811889Y88640610D01*
X86816600Y88855252D01*
X86865485Y89064079D01*
X86889150Y89125786D01*
X87111401Y14813138D02*
X87025031Y15006840D01*
X86973384Y15206490D01*
X86950179Y15411434D01*
X86949137Y15621013D01*
X87125526Y69885293D02*
X87116035Y70117261D01*
X87113490Y70349941D01*
X87117082Y70583010D01*
X87126004Y70816144D01*
X87139447Y71049022D01*
X87156605Y71281321D01*
X87164327Y71374005D01*
X818434Y80623850D02*
X777512Y80407525D01*
X754497Y80191061D01*
X744226Y79974319D01*
X741540Y79757161D01*
X741275Y79539447D01*
X740833Y79466728D01*
X821965Y65507309D02*
X732110Y65328068D01*
X723177Y65207457D01*
X48665686Y444506D02*
X48872912Y460070D01*
X49079278Y485321D01*
X49265412Y508004D01*
X786696Y4953016D02*
X855629Y4764151D01*
X888994Y4691943D01*
X1270000Y14351000D02*
X1359841Y14157258D01*
X1448875Y13963046D01*
X1537223Y13768451D01*
X1625008Y13573559D01*
X1712351Y13378459D01*
X1799374Y13183237D01*
X1886200Y12987981D01*
X1972951Y12792777D01*
X2059749Y12597714D01*
X2146716Y12402877D01*
X2204848Y12273155D01*
X57358136Y702027D02*
X57547083Y792934D01*
X57758009Y819394D01*
X57955363Y785705D01*
X57975497Y779649D01*
X5468043Y1569868D02*
X5674955Y1518507D01*
X5873445Y1443720D01*
X6062184Y1346396D01*
X6239846Y1227424D01*
X6335884Y1150062D01*
X87129057Y92688833D02*
X87059302Y92884982D01*
X86995226Y93083731D01*
X86934316Y93283966D01*
X86874058Y93484572D01*
X86811938Y93684435D01*
X86790383Y93750697D01*
X64918161Y98975335D02*
X64709324Y98934131D01*
X64499697Y98909865D01*
X64289523Y98897776D01*
X64079041Y98893098D01*
X63868494Y98891070D01*
X63658123Y98886926D01*
X63574078Y98883609D01*
X27887066Y783181D02*
X28088130Y771546D01*
X28288573Y755224D01*
X28488514Y735299D01*
X28688078Y712850D01*
X28887386Y688961D01*
X29086559Y664711D01*
X29285721Y641183D01*
X29484994Y619458D01*
X29684499Y600618D01*
X29884360Y585743D01*
X30017858Y578563D01*
X87196064Y86345895D02*
X87223238Y86550415D01*
X87210958Y86755672D01*
X87181961Y86896227D01*
X87171389Y53089527D02*
X87233719Y53289291D01*
X87240165Y53493967D01*
X87224293Y53590487D01*
X87019676Y74771257D02*
X87111612Y74949395D01*
X87150223Y75018206D01*
X82112546Y518597D02*
X82319115Y539193D01*
X82503713Y623201D01*
X82654143Y769677D01*
X82694638Y825512D01*
X87143161Y37524973D02*
X87119948Y37727528D01*
X87097686Y37930287D01*
X87076002Y38133129D01*
X87054524Y38335928D01*
X87032881Y38538562D01*
X87010701Y38740906D01*
X86987611Y38942838D01*
X86963241Y39144233D01*
X458594Y73010899D02*
X458631Y72762892D01*
X458731Y72514958D01*
X458873Y72267085D01*
X459035Y72019264D01*
X459198Y71771484D01*
X459339Y71523736D01*
X459440Y71276008D01*
X459479Y71028290D01*
X459435Y70780573D01*
X459288Y70532845D01*
X459018Y70285097D01*
X458602Y70037317D01*
X458022Y69789496D01*
X457256Y69541623D01*
X456283Y69293689D01*
X455084Y69045681D01*
X2204848Y12273155D02*
X2293224Y12073892D01*
X2380179Y11873857D01*
X2466357Y11674337D01*
X2483557Y11634607D01*
X45077942Y430403D02*
X45284755Y457733D01*
X45494217Y458609D01*
X86867984Y33316337D02*
X86822738Y33532673D01*
X86820762Y33755543D01*
X86844288Y33954951D01*
X86871515Y34103024D01*
X39571065Y98957701D02*
X39315591Y98948723D01*
X39059869Y98940117D01*
X38803981Y98931594D01*
X38548011Y98922865D01*
X38292040Y98913641D01*
X38036153Y98903632D01*
X37780431Y98892548D01*
X37524958Y98880100D01*
X790206Y16287747D02*
X825157Y16069696D01*
X858125Y15850314D01*
X892413Y15630929D01*
X931326Y15412865D01*
X86871515Y47148761D02*
X86852327Y47350467D01*
X86853880Y47473311D01*
X80017045Y539763D02*
X80278980Y539867D01*
X80540918Y539929D01*
X80802856Y539578D01*
X81064795Y538442D01*
X81326734Y536148D01*
X81588672Y532324D01*
X81850610Y526598D01*
X82112546Y518597D01*
X36755905Y472734D02*
X36991775Y513986D01*
X37227139Y543054D01*
X37462050Y560774D01*
X37696560Y567983D01*
X37930720Y565519D01*
X38164585Y554218D01*
X38398205Y534918D01*
X38631635Y508455D01*
X38864925Y475667D01*
X39098129Y437391D01*
X39253577Y409237D01*
X86935012Y51526724D02*
X86923549Y51734094D01*
X86898333Y51941464D01*
X86875046Y52129982D01*
X1139474Y91813951D02*
X1265358Y91648300D01*
X1384240Y91476574D01*
X1500819Y91304429D01*
X1566321Y91210693D01*
X55693013Y98823643D02*
X55492107Y98856310D01*
X55292215Y98894261D01*
X55093336Y98937718D01*
X54895472Y98986904D01*
X54782862Y99017667D01*
X25569335Y991307D02*
X25771182Y973426D01*
X25973677Y949079D01*
X26177464Y932481D01*
X26218434Y931341D01*
X49731082Y543294D02*
X49957399Y543036D01*
X50183360Y542260D01*
X50409127Y540967D01*
X50634862Y539157D01*
X50860726Y536829D01*
X51086882Y533984D01*
X51177462Y532701D01*
X82366557Y98156888D02*
X82166815Y98205138D01*
X81971163Y98286871D01*
X81847963Y98354443D01*
X87234886Y80948399D02*
X87170212Y81179225D01*
X87110887Y81411712D01*
X87055536Y81645458D01*
X87002785Y81880059D01*
X86951262Y82115111D01*
X86899593Y82350211D01*
X86878577Y82444174D01*
X62416957Y98753083D02*
X62217625Y98730649D01*
X61983768Y98732487D01*
X61754026Y98759507D01*
X61526584Y98805154D01*
X61299628Y98862869D01*
X61185766Y98894203D01*
X335130Y76782095D02*
X354400Y76572929D01*
X376939Y76365835D01*
X384524Y76270563D01*
X51547874Y497431D02*
X51778680Y439139D01*
X52008338Y414760D01*
X52237253Y416867D01*
X52465828Y438029D01*
X52694468Y470817D01*
X52923576Y507802D01*
X53015442Y522107D01*
X86998510Y85481585D02*
X87046752Y85697994D01*
X87095979Y85913741D01*
X87145859Y86129487D01*
X87196064Y86345895D01*
X31989874Y98862444D02*
X31768950Y98876970D01*
X31548037Y98892316D01*
X31327143Y98907818D01*
X31106281Y98922808D01*
X30885459Y98936619D01*
X30664689Y98948585D01*
X30443980Y98958040D01*
X30223344Y98964317D01*
X30002790Y98966748D01*
X29782329Y98964668D01*
X29561972Y98957410D01*
X29341728Y98944307D01*
X29121608Y98924692D01*
X28901622Y98897899D01*
X28681781Y98863262D01*
X28462096Y98820112D01*
X46160972Y98837747D02*
X45960603Y98775082D01*
X45756596Y98733250D01*
X45549281Y98709276D01*
X45338994Y98700180D01*
X3390176Y1830920D02*
X3598193Y1811332D01*
X3805603Y1782860D01*
X4012543Y1749273D01*
X4219156Y1714337D01*
X4425581Y1681818D01*
X4494373Y1672166D01*
X9941262Y98604923D02*
X9709751Y98622038D01*
X9478241Y98641303D01*
X9246730Y98662221D01*
X9015220Y98684297D01*
X8783710Y98707035D01*
X8552199Y98729937D01*
X8320689Y98752507D01*
X8089179Y98774249D01*
X86885640Y66787894D02*
X86864316Y67016985D01*
X86865411Y67243985D01*
X86885299Y67469035D01*
X86920351Y67692273D01*
X86966940Y67913839D01*
X86984406Y67987347D01*
X86970303Y78295504D02*
X86994874Y78499235D01*
X87008303Y78702965D01*
X87009103Y78761173D01*
X41564268Y395112D02*
X41770361Y334016D01*
X41976271Y294777D01*
X42182554Y273212D01*
X42389768Y265136D01*
X42598469Y266364D01*
X42668464Y268117D01*
X43518649Y98710752D02*
X43309989Y98719966D01*
X43101003Y98735316D01*
X42892111Y98756245D01*
X42683731Y98782196D01*
X42476282Y98812610D01*
X42407412Y98823643D01*
X1742710Y3316122D02*
X1888825Y3163180D01*
X2032711Y3008529D01*
X2174207Y2852008D01*
X2313151Y2693453D01*
X2449384Y2532703D01*
X2582744Y2369593D01*
X2635248Y2303652D01*
X86977344Y52666211D02*
X87070921Y52847021D01*
X87148287Y53036181D01*
X87171389Y53089527D01*
X57975497Y779649D02*
X58183253Y707646D01*
X58391523Y637713D01*
X58602890Y590518D01*
X58645762Y585626D01*
X87196064Y91775150D02*
X87227750Y91977508D01*
X87234243Y92177711D01*
X87209678Y92405014D01*
X87159202Y92603588D01*
X87129057Y92688833D01*
X14022904Y762015D02*
X14237208Y804298D01*
X14448276Y813381D01*
X14663215Y791199D01*
X14707294Y783181D01*
X86494040Y4691943D02*
X86494709Y4901561D01*
X86598308Y5085625D01*
X86659857Y5143509D01*
X1273510Y3947587D02*
X1384373Y3755905D01*
X1512971Y3577196D01*
X1656946Y3407696D01*
X1742710Y3316122D01*
X631473Y33827869D02*
X629849Y33599850D01*
X632645Y33372185D01*
X639442Y33144857D01*
X649821Y32917848D01*
X663363Y32691142D01*
X679649Y32464721D01*
X698261Y32238567D01*
X718780Y32012664D01*
X740786Y31786995D01*
X763862Y31561541D01*
X779634Y31411350D01*
X84970038Y97952293D02*
X84758620Y97965775D01*
X84547636Y97979776D01*
X84337007Y97994296D01*
X84126653Y98009334D01*
X83916493Y98024887D01*
X83706448Y98040957D01*
X83622445Y98047528D01*
X6335884Y1150062D02*
X6486374Y1014384D01*
X6635320Y874965D01*
X6785306Y736326D01*
X6815656Y709089D01*
X87093767Y23858366D02*
X87136210Y24058732D01*
X87170983Y24259692D01*
X87198164Y24461330D01*
X87217834Y24663725D01*
X87230076Y24866960D01*
X87234968Y25071116D01*
X87234886Y25153054D01*
X26218434Y931341D02*
X26428319Y921939D01*
X26637417Y905715D01*
X26845936Y884777D01*
X27054082Y861234D01*
X27262061Y837195D01*
X27470080Y814767D01*
X27678346Y796060D01*
X27887066Y783181D01*
X87005572Y28169321D02*
X87030857Y28388613D01*
X87061022Y28607368D01*
X87094991Y28825710D01*
X87131689Y29043762D01*
X87170040Y29261650D01*
X87208969Y29479495D01*
X87247400Y29697422D01*
X87284259Y29915554D01*
X86889150Y89125786D02*
X86944144Y89323741D01*
X86940104Y89537383D01*
X86931481Y89580861D01*
X15525741Y98372099D02*
X15304194Y98368099D01*
X15082724Y98366558D01*
X14861327Y98367291D01*
X14639996Y98370111D01*
X14418727Y98374834D01*
X14197515Y98381272D01*
X13976355Y98389240D01*
X13755241Y98398551D01*
X13534168Y98409021D01*
X13313132Y98420462D01*
X13092127Y98432688D01*
X12871148Y98445514D01*
X12650190Y98458754D01*
X12429248Y98472221D01*
X12208316Y98485730D01*
X11987391Y98499094D01*
X790206Y93500239D02*
X694440Y93316569D01*
X645577Y93203896D01*
X80909583Y98848340D02*
X80782567Y98904775D01*
X16922748Y98456762D02*
X16705643Y98434199D01*
X16487747Y98415804D01*
X16269302Y98401092D01*
X16050549Y98389578D01*
X15831732Y98380780D01*
X15613092Y98374211D01*
X15525741Y98372099D01*
X1019520Y90275845D02*
X895970Y90112618D01*
X769636Y89953939D01*
X733771Y89908942D01*
X85739112Y97207915D02*
X85616591Y97377127D01*
X85494305Y97545629D01*
X85389844Y97701813D01*
X87058498Y10410478D02*
X87057381Y10610576D01*
X87051217Y10843455D01*
X87036443Y11076144D01*
X87014240Y11275777D01*
X86980875Y11475874D01*
X829028Y30853955D02*
X833673Y30643925D01*
X844398Y30434475D01*
X860333Y30225521D01*
X880610Y30016980D01*
X904360Y29808771D01*
X930714Y29600810D01*
X958804Y29393014D01*
X987761Y29185301D01*
X899566Y54348946D02*
X887753Y54148525D01*
X876499Y53948106D01*
X866362Y53747688D01*
X857902Y53547270D01*
X851676Y53346849D01*
X850194Y53280041D01*
X86984406Y67987347D02*
X87035323Y68222851D01*
X87074914Y68458521D01*
X87104087Y68694524D01*
X87123752Y68931024D01*
X87134819Y69168185D01*
X87138197Y69406174D01*
X87134796Y69645155D01*
X87125526Y69885293D01*
X87181961Y19413374D02*
X87129693Y19655333D01*
X87092054Y19898408D01*
X87069209Y20142679D01*
X87061317Y20388226D01*
X87068541Y20635128D01*
X87091044Y20883465D01*
X87104360Y20983218D01*
X61076406Y553866D02*
X61488836Y553525D01*
X61901286Y553165D01*
X62313753Y552787D01*
X62726237Y552392D01*
X63138737Y551981D01*
X63551251Y551556D01*
X63963778Y551119D01*
X64376316Y550670D01*
X64788864Y550210D01*
X65201422Y549742D01*
X65613987Y549266D01*
X66026558Y548784D01*
X66439135Y548296D01*
X66851715Y547804D01*
X67264298Y547310D01*
X67676882Y546815D01*
X68089466Y546320D01*
X68502049Y545826D01*
X68914629Y545334D01*
X69327205Y544846D01*
X69739776Y544364D01*
X70152341Y543888D01*
X70564897Y543420D01*
X70977445Y542960D01*
X71389982Y542511D01*
X71802508Y542074D01*
X72215020Y541649D01*
X72627518Y541238D01*
X73040001Y540843D01*
X73452467Y540465D01*
X73864915Y540105D01*
X74277344Y539763D01*
X86995000Y61813736D02*
X86967657Y62024956D01*
X86977344Y62233543D01*
X87150223Y75018206D02*
X87221490Y75208889D01*
X87218145Y75422662D01*
X87210189Y75466219D01*
X51219794Y98950638D02*
X51017500Y98990694D01*
X50786013Y99000890D01*
X50558134Y98976171D01*
X50332534Y98921193D01*
X50172054Y98865975D01*
X35411822Y539763D02*
X35638344Y534810D01*
X35865189Y537344D01*
X36091940Y537739D01*
X36318180Y526368D01*
X36543491Y493605D01*
X36618316Y476266D01*
X740833Y63249544D02*
X743618Y63038265D01*
X757193Y62827362D01*
X776103Y62688618D01*
X49628762Y98756615D02*
X49377722Y98746075D01*
X49127218Y98743059D01*
X48877127Y98746822D01*
X48627324Y98756620D01*
X48377685Y98771710D01*
X48128087Y98791345D01*
X47878406Y98814783D01*
X47628518Y98841278D01*
X83086216Y1372313D02*
X83291509Y1392513D01*
X83357862Y1397010D01*
X994823Y94586779D02*
X994989Y94375358D01*
X981245Y94166402D01*
X950104Y93960890D01*
X898081Y93759798D01*
X821688Y93564103D01*
X790206Y93500239D01*
X60508439Y99042364D02*
X60256523Y99063607D01*
X60014896Y99076551D01*
X59787956Y99065622D01*
X59574807Y99017790D01*
X59365743Y98943601D01*
X59153670Y98858232D01*
X59026768Y98806009D01*
X694971Y67722764D02*
X815363Y67550674D01*
X931326Y67447587D01*
X22919971Y881947D02*
X23128299Y901595D01*
X23337406Y911316D01*
X23526738Y913707D01*
X726709Y78955196D02*
X694518Y78747041D01*
X655575Y78538992D01*
X598111Y78339525D01*
X553851Y78235537D01*
X7235463Y543294D02*
X7455155Y543730D01*
X7674411Y542070D01*
X7893312Y538796D01*
X8111937Y534392D01*
X8330369Y529342D01*
X8548688Y524130D01*
X8636002Y522107D01*
X1012458Y25826872D02*
X1012356Y25626425D01*
X1014630Y25425839D01*
X1017183Y25224972D01*
X1017920Y25023687D01*
X1014746Y24821843D01*
X1012458Y24754413D01*
X86568131Y4148673D02*
X86545622Y4349717D01*
X86519018Y4554478D01*
X86494040Y4691943D01*
X719668Y82415945D02*
X757105Y82217834D01*
X795939Y82020188D01*
X833099Y81822728D01*
X865516Y81625175D01*
X893247Y81394206D01*
X896057Y81361143D01*
X642045Y82775786D02*
X687282Y82573377D01*
X719668Y82415945D01*
X730240Y56571442D02*
X788321Y56367327D01*
X834346Y56161880D01*
X869463Y55955259D01*
X894824Y55747620D01*
X911581Y55539120D01*
X920884Y55329917D01*
X923885Y55120167D01*
X921734Y54910028D01*
X915582Y54699656D01*
X906581Y54489209D01*
X899566Y54348946D01*
X931326Y15412865D02*
X975178Y15207959D01*
X1027633Y15005888D01*
X1089111Y14806512D01*
X1160030Y14609692D01*
X1240809Y14415289D01*
X1270000Y14351000D01*
X740833Y79466728D02*
X742515Y79256531D01*
X738191Y79049165D01*
X726709Y78955196D01*
X63574078Y98883609D02*
X63355838Y98869146D01*
X63137880Y98849752D01*
X62920482Y98825707D01*
X62703922Y98797290D01*
X62488476Y98764781D01*
X62416957Y98753083D01*
X85389844Y97701813D02*
X85249299Y97857338D01*
X85053658Y97942134D01*
X84970038Y97952293D01*
X18961793Y98636682D02*
X18706477Y98622002D01*
X18451204Y98604595D01*
X18196013Y98584708D01*
X17940946Y98562589D01*
X17686045Y98538487D01*
X17431350Y98512650D01*
X17176904Y98485326D01*
X16922748Y98456762D01*
X87051435Y42696707D02*
X87094727Y42892662D01*
X87128412Y43138071D01*
X87144445Y43383997D01*
X87148237Y43630441D01*
X87145197Y43877401D01*
X87140737Y44124879D01*
X87139630Y44273614D01*
X451553Y74922949D02*
X454890Y74683509D01*
X457113Y74444109D01*
X458426Y74204793D01*
X459038Y73965600D01*
X459153Y73726573D01*
X458980Y73487753D01*
X458725Y73249182D01*
X458594Y73010899D01*
X585610Y58324759D02*
X572291Y58104006D01*
X565048Y57883623D01*
X565329Y57663653D01*
X574580Y57444136D01*
X594250Y57225116D01*
X625785Y57006632D01*
X670632Y56788727D01*
X730240Y56571442D01*
X599714Y40583572D02*
X599570Y40334535D01*
X597444Y40085516D01*
X593771Y39836531D01*
X588988Y39587599D01*
X583531Y39338736D01*
X577835Y39089961D01*
X572336Y38841290D01*
X567472Y38592742D01*
X563677Y38344333D01*
X561387Y38096082D01*
X560913Y37930676D01*
X52024137Y98806009D02*
X51842753Y98899375D01*
X51629683Y98950706D01*
X51424360Y98940847D01*
X51403245Y98936535D01*
X80782567Y98904775D02*
X80552225Y98923222D01*
X80321062Y98944069D01*
X80091290Y98943390D01*
X79865125Y98897257D01*
X79738359Y98841278D01*
X60519011Y504472D02*
X60726696Y535610D01*
X60936236Y551111D01*
X61076406Y553866D01*
X43783232Y296345D02*
X43987787Y299997D01*
X44191387Y308394D01*
X44394112Y322669D01*
X44596045Y343953D01*
X44797268Y373378D01*
X44997862Y412075D01*
X45077942Y430403D01*
X87104360Y20983218D02*
X87135126Y21220183D01*
X87158040Y21457436D01*
X87172192Y21694936D01*
X87176672Y21932641D01*
X87170569Y22170511D01*
X87152973Y22408504D01*
X87122974Y22646579D01*
X87079663Y22884695D01*
X69500741Y99134089D02*
X69289083Y99136359D01*
X69080153Y99117697D01*
X68873062Y99084564D01*
X68666923Y99043420D01*
X68460848Y99000723D01*
X68253950Y98962933D01*
X68170762Y98950638D01*
X34067740Y642061D02*
X34271157Y630141D01*
X34473027Y607887D01*
X34675929Y585636D01*
X34716860Y582095D01*
X78288426Y98361505D02*
X78133224Y98467334D01*
X39803910Y98954169D02*
X39600172Y98957550D01*
X39571065Y98957701D01*
X72894461Y98770718D02*
X72699557Y98720187D01*
X72672209Y98724877D01*
X87076132Y16764010D02*
X87150294Y16968561D01*
X87163342Y17176711D01*
X87114933Y17353142D01*
X32949440Y638530D02*
X33159760Y640773D01*
X33369940Y643061D01*
X33579841Y644699D01*
X33789323Y644986D01*
X33998247Y643224D01*
X34067740Y642061D01*
X87206658Y45652987D02*
X87153535Y45886161D01*
X87100219Y46119415D01*
X87047031Y46352832D01*
X86994297Y46586493D01*
X86942338Y46820479D01*
X86891478Y47054872D01*
X86871515Y47148761D01*
X384524Y76270563D02*
X397898Y76060317D01*
X411146Y75849717D01*
X423622Y75638924D01*
X434678Y75428099D01*
X443668Y75217403D01*
X449946Y75006995D01*
X451553Y74922949D01*
X896057Y81361143D02*
X898406Y81153800D01*
X879147Y80944733D01*
X843457Y80737236D01*
X818434Y80623850D01*
X36618316Y476266D02*
X36755905Y472734D01*
X49265412Y508004D02*
X49469143Y528215D01*
X49672873Y542357D01*
X49731082Y543294D01*
X1040686Y28299847D02*
X1039341Y28068576D01*
X1037374Y27837136D01*
X1034908Y27605544D01*
X1032064Y27373820D01*
X1028965Y27141979D01*
X1025731Y26910040D01*
X1022486Y26678020D01*
X1019351Y26445937D01*
X1016448Y26213808D01*
X1013900Y25981651D01*
X1012458Y25826872D01*
X86980875Y11475874D02*
X86946350Y11696482D01*
X86939967Y11917128D01*
X86968593Y12135816D01*
X87039096Y12350549D01*
X87100829Y12470710D01*
X1012458Y24754413D02*
X1001103Y24514393D01*
X988958Y24274524D01*
X976162Y24034771D01*
X962855Y23795099D01*
X949175Y23555473D01*
X935263Y23315859D01*
X921257Y23076220D01*
X907298Y22836522D01*
X893524Y22596731D01*
X880076Y22356810D01*
X871360Y22196774D01*
X85792016Y3196168D02*
X85936594Y3371237D01*
X86080988Y3547468D01*
X86225757Y3725280D01*
X86371455Y3905092D01*
X86518642Y4087321D01*
X86568131Y4148673D01*
X87079663Y22884695D02*
X87047649Y23096674D01*
X87035099Y23310359D01*
X87042235Y23524420D01*
X87069284Y23737529D01*
X87093767Y23858366D01*
X634983Y51759569D02*
X593541Y51543264D01*
X558296Y51326906D01*
X528933Y51110442D01*
X505139Y50893821D01*
X486599Y50676990D01*
X473001Y50459899D01*
X464029Y50242493D01*
X459372Y50024722D01*
X458714Y49806534D01*
X461743Y49587876D01*
X465656Y49441817D01*
X543279Y44778083D02*
X547940Y44516109D01*
X552643Y44254061D01*
X557347Y43991951D01*
X562010Y43729789D01*
X566590Y43467585D01*
X571047Y43205350D01*
X575339Y42943094D01*
X579425Y42680828D01*
X583263Y42418562D01*
X586812Y42156306D01*
X590030Y41894071D01*
X592876Y41631867D01*
X595309Y41369705D01*
X597287Y41107595D01*
X598769Y40845547D01*
X599714Y40583572D01*
X54782862Y99017667D02*
X54564471Y99064196D01*
X54347344Y99078439D01*
X54127708Y99059920D01*
X54003215Y99035301D01*
X78133224Y98467334D02*
X77956829Y98583201D01*
X77769852Y98661366D01*
X77569650Y98694553D01*
X77353577Y98675483D01*
X42668464Y268117D02*
X42877146Y274354D01*
X43086295Y280774D01*
X43295629Y286820D01*
X43504871Y291935D01*
X43713740Y295563D01*
X43783232Y296345D01*
X87121995Y41218568D02*
X87089052Y41420343D01*
X87062029Y41539586D01*
X6815656Y709089D02*
X6994217Y591952D01*
X7188839Y544864D01*
X7235463Y543294D01*
X87114933Y17353142D02*
X87051327Y17549322D01*
X87035081Y17766581D01*
X87054724Y17983369D01*
X87076132Y18129258D01*
X86871515Y34103024D02*
X86913469Y34313654D01*
X86955134Y34524654D01*
X86997212Y34735736D01*
X87040407Y34946611D01*
X87085422Y35156988D01*
X87132960Y35366580D01*
X87183724Y35575098D01*
X87238418Y35782250D01*
X87044373Y84059902D02*
X87055883Y84265285D01*
X87029911Y84467888D01*
X87012635Y84522040D01*
X86942075Y16040819D02*
X86946526Y16250919D01*
X86972116Y16456995D01*
X87028266Y16656692D01*
X87076132Y16764010D01*
X497416Y46503172D02*
X500973Y46287536D01*
X506062Y46071900D01*
X512228Y45856264D01*
X519015Y45640628D01*
X525968Y45424992D01*
X532633Y45209356D01*
X538555Y44993720D01*
X543279Y44778083D01*
X59026768Y98806009D02*
X58832402Y98727149D01*
X58681052Y98668420D01*
X73748177Y98897734D02*
X73526484Y98915589D01*
X73310741Y98908310D01*
X73100288Y98863989D01*
X72894461Y98770718D01*
X2007294Y10558639D02*
X1919487Y10378065D01*
X1834587Y10156596D01*
X1770432Y9930707D01*
X1725346Y9701235D01*
X1697654Y9469020D01*
X1689807Y9352145D01*
X71391624Y98936535D02*
X71183740Y99004059D01*
X70972738Y99055535D01*
X70758480Y99090547D01*
X70540825Y99108675D01*
X70319636Y99109503D01*
X70245097Y99105861D01*
X87210189Y75466219D02*
X87168320Y75670614D01*
X87124044Y75874895D01*
X87097298Y75967179D01*
X46612517Y423340D02*
X46869162Y423672D01*
X47125808Y424664D01*
X47382454Y426319D01*
X47639101Y428635D01*
X47895747Y431612D01*
X48152393Y435250D01*
X48409039Y439548D01*
X48665686Y444506D01*
X30017858Y578563D02*
X30245729Y570341D01*
X30473140Y564862D01*
X30700366Y561149D01*
X30927688Y558225D01*
X31155384Y555114D01*
X31231414Y553866D01*
X8089179Y98774249D02*
X7872723Y98778067D01*
X7662911Y98750641D01*
X7459298Y98696184D01*
X7261444Y98618907D01*
X7150800Y98566122D01*
X87234886Y25153054D02*
X87241052Y25362524D01*
X87273687Y25569329D01*
X87227824Y13472587D02*
X87215781Y13696724D01*
X87202946Y13920287D01*
X87189541Y14143723D01*
X87175788Y14367477D01*
X87167858Y14495651D01*
X18877130Y627957D02*
X19077556Y639115D01*
X19277998Y650621D01*
X19478475Y662267D01*
X19679004Y673844D01*
X19879602Y685142D01*
X20080288Y695951D01*
X20281078Y706063D01*
X20481991Y715268D01*
X20683044Y723356D01*
X20884255Y730118D01*
X21018493Y733786D01*
X87252521Y36886446D02*
X87210243Y37084998D01*
X87175592Y37284188D01*
X87147916Y37484666D01*
X87143161Y37524973D01*
X22994040Y98791905D02*
X22750468Y98841974D01*
X22506024Y98876218D01*
X22260868Y98894314D01*
X22015163Y98895939D01*
X21769070Y98880770D01*
X21522751Y98848485D01*
X21424196Y98830706D01*
X779634Y31411350D02*
X803633Y31201182D01*
X822797Y30992139D01*
X829028Y30853955D01*
X77353577Y98675483D02*
X77147459Y98659835D01*
X76943844Y98692173D01*
X76760913Y98753083D01*
X58645762Y585626D02*
X58859992Y590867D01*
X59077193Y622590D01*
X59294139Y645268D01*
X59337214Y645592D01*
X36734739Y98798946D02*
X36531328Y98792110D01*
X36327835Y98787646D01*
X36124179Y98784829D01*
X35920281Y98782932D01*
X35716060Y98781227D01*
X35511436Y98778988D01*
X35429457Y98777780D01*
X2765774Y98488500D02*
X2576442Y98369556D01*
X2386325Y98252387D01*
X2199664Y98130401D01*
X2099019Y98058122D01*
X500926Y5845533D02*
X564852Y5645998D01*
X627416Y5449627D01*
X689283Y5255536D01*
X751119Y5062842D01*
X786696Y4953016D01*
X87224293Y53590487D02*
X87182958Y53799548D01*
X87156124Y54009759D01*
X87140722Y54220715D01*
X87133685Y54432010D01*
X87131945Y54643239D01*
X87132434Y54853998D01*
X87132567Y54938079D01*
X87079663Y40393058D02*
X87123975Y40600928D01*
X87143155Y40807138D01*
X87141172Y41012686D01*
X87121995Y41218568D01*
X67525194Y98918900D02*
X67301056Y98929733D01*
X67077493Y98945696D01*
X66854058Y98962802D01*
X66630304Y98977062D01*
X66502130Y98982398D01*
X87065538Y8777116D02*
X87067263Y8980995D01*
X87067417Y9185124D01*
X87066414Y9389419D01*
X87064666Y9593797D01*
X87062587Y9798176D01*
X87060591Y10002471D01*
X87059090Y10206600D01*
X87058498Y10410478D01*
X87009103Y78761173D02*
X87011906Y78971017D01*
X87022936Y79179826D01*
X87042152Y79387560D01*
X87069513Y79594176D01*
X87104978Y79799633D01*
X87148505Y80003890D01*
X87200053Y80206906D01*
X87259583Y80408639D01*
X4494373Y1672166D02*
X4707765Y1650807D01*
X4921502Y1633814D01*
X5134918Y1615428D01*
X5347350Y1589890D01*
X5468043Y1569868D01*
X86882109Y82719329D02*
X86907793Y82929114D01*
X86934659Y83138543D01*
X86961816Y83347778D01*
X86988377Y83556981D01*
X87013453Y83766313D01*
X87036155Y83975936D01*
X87044373Y84059902D01*
X54348931Y504472D02*
X54550968Y472502D01*
X54715833Y490369D01*
X40834015Y483307D02*
X41043008Y481684D01*
X41253572Y465827D01*
X41457229Y428199D01*
X41564268Y395112D01*
X557382Y89390369D02*
X552051Y89168782D01*
X546659Y88947195D01*
X541226Y88725607D01*
X535772Y88504018D01*
X530319Y88282430D01*
X524887Y88060841D01*
X519496Y87839252D01*
X514167Y87617663D01*
X508921Y87396075D01*
X503779Y87174486D01*
X498760Y86952897D01*
X493886Y86731309D01*
X489178Y86509720D01*
X484655Y86288132D01*
X480339Y86066545D01*
X476250Y85844957D01*
X87189024Y44774552D02*
X87241382Y44992175D01*
X87258690Y45211122D01*
X87245572Y45431392D01*
X87206658Y45652987D01*
X27407294Y98633151D02*
X27187081Y98610710D01*
X26965880Y98596542D01*
X26744016Y98590973D01*
X26521818Y98594329D01*
X8636002Y522107D02*
X8838560Y517670D01*
X9041895Y510512D01*
X9244713Y499994D01*
X9285101Y497431D01*
X87284259Y29915554D02*
X87312290Y30138791D01*
X87320664Y30360093D01*
X87306943Y30580569D01*
X87268693Y30801326D01*
X87234886Y30928024D01*
X87062029Y64417238D02*
X87058734Y64640388D01*
X87052800Y64863350D01*
X87044192Y65086127D01*
X87032875Y65308718D01*
X87018814Y65531122D01*
X87001975Y65753340D01*
X86982324Y65975372D01*
X86959824Y66197217D01*
X86934442Y66418876D01*
X86906143Y66640349D01*
X86885640Y66787894D01*
X79738359Y98841278D02*
X79559864Y98744232D01*
X79382022Y98644470D01*
X79205469Y98541346D01*
X79170370Y98520260D01*
X16132530Y550335D02*
X16368575Y522839D01*
X16604454Y506708D01*
X16840184Y500284D01*
X17075781Y501912D01*
X17311262Y509934D01*
X17546645Y522693D01*
X17781948Y538534D01*
X18017186Y555798D01*
X18252377Y572830D01*
X18487539Y587972D01*
X18644306Y596198D01*
X87005572Y48796227D02*
X87050492Y49005370D01*
X87078096Y49211371D01*
X87079435Y49416114D01*
X87065538Y49530011D01*
X86878577Y82444174D02*
X86874608Y82650051D01*
X86882109Y82719329D01*
X87263093Y59876968D02*
X87254719Y60088204D01*
X87227824Y60296774D01*
X87273687Y25569329D02*
X87299934Y25769679D01*
X87280910Y25985491D01*
X87214281Y26191032D01*
X87185492Y26250209D01*
X87234886Y30928024D02*
X87173504Y31152741D01*
X87123784Y31380071D01*
X87083949Y31609532D01*
X87052220Y31840639D01*
X87026821Y32072910D01*
X87005973Y32305861D01*
X86998510Y32399123D01*
X87104360Y72905070D02*
X87079008Y73106812D01*
X87052463Y73308556D01*
X87024563Y73510300D01*
X86995144Y73712045D01*
X86964046Y73913789D01*
X86931106Y74115531D01*
X86917378Y74196227D01*
X86998510Y32399123D02*
X86985502Y32600500D01*
X86969679Y32801654D01*
X86944168Y33002364D01*
X86902101Y33202410D01*
X86867984Y33316337D01*
X691439Y18658425D02*
X675110Y18434461D01*
X663875Y18211002D01*
X657802Y17987997D01*
X656961Y17765393D01*
X661422Y17543138D01*
X671254Y17321179D01*
X686527Y17099465D01*
X707311Y16877941D01*
X733675Y16656556D01*
X765690Y16435258D01*
X790206Y16287747D01*
X86949137Y15621013D02*
X86950894Y15830909D01*
X86942075Y16040819D01*
X42407412Y98823643D02*
X42204995Y98852788D01*
X42002539Y98876890D01*
X41800001Y98896197D01*
X41597340Y98910956D01*
X41394513Y98921415D01*
X41191479Y98927822D01*
X40988195Y98930426D01*
X40784621Y98929472D01*
X86875046Y52129982D02*
X86869277Y52338709D01*
X86912247Y52537770D01*
X86977344Y52666211D01*
X987761Y29185301D02*
X1012408Y28965099D01*
X1028781Y28743899D01*
X1037875Y28522037D01*
X1040686Y28299847D01*
X54715833Y490369D02*
X54955591Y527635D01*
X55195272Y550559D01*
X55434793Y559787D01*
X55674073Y555967D01*
X55913031Y539746D01*
X56151586Y511769D01*
X56246877Y497431D01*
X85312243Y2769321D02*
X85473966Y2892766D01*
X85626257Y3022668D01*
X85779034Y3180727D01*
X85792016Y3196168D01*
X1566321Y91210693D02*
X1489161Y91014285D01*
X1395488Y90831501D01*
X1289627Y90658856D01*
X1175905Y90492859D01*
X1058645Y90330024D01*
X1019520Y90275845D01*
X1689807Y9352145D02*
X1671419Y9082945D01*
X1642056Y8817040D01*
X1601716Y8554379D01*
X1550399Y8294908D01*
X1488107Y8038577D01*
X1414838Y7785333D01*
X1330594Y7535123D01*
X1235373Y7287897D01*
X1129177Y7043602D01*
X1012006Y6802185D01*
X927794Y6642814D01*
X34716860Y582095D02*
X34932753Y566592D01*
X35150074Y553154D01*
X35368168Y541787D01*
X35411822Y539763D01*
X86853880Y47473311D02*
X86881501Y47674164D01*
X86878577Y47748488D01*
X86285913Y95623946D02*
X86297432Y95842891D01*
X86298694Y96055219D01*
X86294860Y96276300D01*
X86292954Y96428290D01*
X84243316Y1869721D02*
X84408067Y2012991D01*
X84572239Y2157387D01*
X84736798Y2301459D01*
X84902715Y2443754D01*
X85070956Y2582820D01*
X85242490Y2717204D01*
X85312243Y2769321D01*
X86963241Y39144233D02*
X86945288Y39343545D01*
X86944548Y39580677D01*
X86963736Y39815579D01*
X86999921Y40048247D01*
X87050175Y40278681D01*
X87079663Y40393058D01*
X78941077Y98357974D02*
X78737698Y98272820D01*
X78532764Y98259621D01*
X78328856Y98334529D01*
X78288426Y98361505D01*
X888994Y4691943D02*
X983302Y4506689D01*
X1079927Y4321098D01*
X1177215Y4134840D01*
X1273510Y3947587D01*
X65196847Y98982398D02*
X64994691Y98985923D01*
X64918161Y98975335D01*
X86931481Y89580861D02*
X86893570Y89803484D01*
X86878187Y90024370D01*
X86882068Y90243768D01*
X86901947Y90461926D01*
X86934558Y90679092D01*
X86976636Y90895513D01*
X87024916Y91111439D01*
X87076132Y91327116D01*
X14707294Y783181D02*
X14929130Y740258D01*
X15151401Y700468D01*
X15374026Y663326D01*
X15596927Y628349D01*
X15820021Y595052D01*
X16043231Y562950D01*
X16132530Y550335D01*
X21424196Y98830706D02*
X21195543Y98791967D01*
X20966085Y98760400D01*
X20735941Y98734996D01*
X20505233Y98714742D01*
X20274085Y98698627D01*
X20042617Y98685641D01*
X19810952Y98674771D01*
X19579211Y98665007D01*
X19347516Y98655337D01*
X19115990Y98644749D01*
X18961793Y98636682D01*
X23526738Y913707D02*
X23744698Y918671D01*
X23962191Y926661D01*
X24179495Y939211D01*
X24396894Y957854D01*
X24614667Y984123D01*
X24687391Y994839D01*
X51177462Y532701D02*
X51388752Y526750D01*
X51547874Y497431D01*
X723177Y65207457D02*
X725529Y64962714D01*
X727425Y64717972D01*
X729074Y64473232D01*
X730681Y64228493D01*
X732453Y63983755D01*
X734598Y63739018D01*
X737322Y63494281D01*
X740833Y63249544D01*
X87100829Y12470710D02*
X87191850Y12680937D01*
X87234354Y12898068D01*
X87243626Y13119886D01*
X87234953Y13344171D01*
X87227824Y13472587D01*
X82694638Y825512D02*
X82812454Y992980D01*
X82934408Y1161478D01*
X83060501Y1336175D01*
X83086216Y1372313D01*
X11987391Y98499094D02*
X11731910Y98512756D01*
X11476182Y98525053D01*
X11220291Y98536606D01*
X10964318Y98548036D01*
X10708346Y98559963D01*
X10452458Y98573006D01*
X10196735Y98587786D01*
X9941262Y98604923D01*
X87238418Y35782250D02*
X87284658Y35992580D01*
X87309227Y36199840D01*
X87313519Y36405426D01*
X87298930Y36610731D01*
X87266856Y36817151D01*
X87252521Y36886446D01*
X613817Y35274249D02*
X630715Y35048893D01*
X639652Y34822825D01*
X642486Y34596369D01*
X641073Y34369849D01*
X637271Y34143586D01*
X632938Y33917906D01*
X631473Y33827869D01*
X33379819Y98749552D02*
X33162960Y98758752D01*
X32945745Y98774749D01*
X32728337Y98795040D01*
X32510896Y98817122D01*
X32293585Y98838492D01*
X32076564Y98856645D01*
X31989874Y98862444D01*
X642045Y92752330D02*
X711531Y92562850D01*
X804237Y92349497D01*
X912009Y92144657D01*
X1037506Y91948553D01*
X1139474Y91813951D01*
X2635248Y2303652D02*
X2769191Y2146318D01*
X2934875Y1996017D01*
X3126685Y1887969D01*
X3326353Y1836927D01*
X3390176Y1830920D01*
X58681052Y98668420D02*
X58467326Y98600644D01*
X58251262Y98555905D01*
X58031530Y98535979D01*
X57806798Y98542637D01*
X57675623Y98559060D01*
X539748Y84402086D02*
X541250Y84198366D01*
X543826Y83994686D01*
X548550Y83791087D01*
X556499Y83587612D01*
X568747Y83384303D01*
X586371Y83181200D01*
X610445Y82978348D01*
X642045Y82775786D01*
X87164327Y71374005D02*
X87178006Y71614951D01*
X87180543Y71855024D01*
X87173714Y72094385D01*
X87159295Y72333197D01*
X87139065Y72571621D01*
X87114798Y72809819D01*
X87104360Y72905070D01*
X60021603Y539763D02*
X60223115Y494394D01*
X60423429Y489089D01*
X60519011Y504472D01*
X74277344Y539763D02*
X74635857Y539220D01*
X74994376Y538895D01*
X75352905Y538755D01*
X75711448Y538770D01*
X76070012Y538910D01*
X76428602Y539143D01*
X76787222Y539438D01*
X77145878Y539763D01*
X77504575Y540089D01*
X77863319Y540384D01*
X78222114Y540617D01*
X78580966Y540757D01*
X78939880Y540772D01*
X79298861Y540632D01*
X79657914Y540307D01*
X80017045Y539763D01*
X21018493Y733786D02*
X21257623Y742033D01*
X21496174Y753464D01*
X21734230Y767954D01*
X21971872Y785380D01*
X22209184Y805616D01*
X22446249Y828539D01*
X22683150Y854025D01*
X22919971Y881947D01*
X31555964Y564460D02*
X31772836Y604201D01*
X31990145Y627116D01*
X32207809Y637564D01*
X32425748Y639904D01*
X32643881Y638497D01*
X32862127Y637701D01*
X32949440Y638530D01*
X10495126Y522107D02*
X10703271Y541526D01*
X10911401Y550335D01*
X927794Y6642814D02*
X831141Y6464338D01*
X735942Y6286624D01*
X629491Y6086727D01*
X526184Y5892781D01*
X500926Y5845533D01*
X87227824Y60296774D02*
X87191228Y60533485D01*
X87154356Y60770549D01*
X87117451Y61007804D01*
X87080756Y61245090D01*
X87044513Y61482245D01*
X87008968Y61719109D01*
X86995000Y61813736D01*
X18644306Y596198D02*
X18848028Y624710D01*
X18877130Y627957D01*
X81847963Y98354443D02*
X81641447Y98460393D01*
X81426891Y98550610D01*
X81214487Y98644814D01*
X81014432Y98762728D01*
X80909583Y98848340D01*
X45338994Y98700180D02*
X45111449Y98699767D01*
X44883905Y98698856D01*
X44656363Y98697945D01*
X44428821Y98697529D01*
X44201279Y98698106D01*
X43973737Y98700171D01*
X43746193Y98704221D01*
X43518649Y98710752D01*
X83357862Y1397010D02*
X83559689Y1417864D01*
X83782831Y1465722D01*
X83982995Y1557068D01*
X84149989Y1710955D01*
X84243316Y1869721D01*
X560913Y37930676D02*
X560197Y37681637D01*
X558540Y37432597D01*
X556673Y37183557D01*
X555328Y36934517D01*
X555240Y36685477D01*
X557139Y36436437D01*
X561760Y36187397D01*
X569833Y35938356D01*
X582092Y35689316D01*
X599270Y35440276D01*
X613817Y35274249D01*
X87019676Y77886291D02*
X86964565Y78086933D01*
X86970303Y78295504D01*
X931326Y67447587D02*
X1096555Y67301506D01*
X1261997Y67151815D01*
X1398579Y67004688D01*
X1488721Y66879620D01*
X87097298Y75967179D02*
X87047467Y76173053D01*
X87029388Y76378599D01*
X87041738Y76584808D01*
X87083195Y76792667D01*
X59337214Y645592D02*
X59552794Y631561D01*
X59767852Y598670D01*
X59979810Y550795D01*
X60021603Y539763D01*
X53015442Y522107D02*
X53222406Y553266D01*
X53429887Y582402D01*
X53637884Y602331D01*
X53846397Y605867D01*
X54055426Y585824D01*
X54264969Y535018D01*
X54348931Y504472D01*
X13289120Y645592D02*
X13497326Y661814D01*
X13704589Y691698D01*
X13909967Y733833D01*
X14022904Y762015D01*
X56246877Y497431D02*
X56470051Y471774D01*
X56686853Y472253D01*
X56896865Y501939D01*
X57099668Y563901D01*
X57294844Y661207D01*
X57358136Y702027D01*
X23943013Y98548488D02*
X23736506Y98606758D01*
X23529203Y98661647D01*
X23321326Y98713819D01*
X23113098Y98763935D01*
X22994040Y98791905D01*
X730240Y19727330D02*
X722529Y19526614D01*
X717656Y19325568D01*
X713247Y19124612D01*
X706930Y18924167D01*
X693983Y18691519D01*
X691439Y18658425D01*
X25505816Y98499094D02*
X25307861Y98460699D01*
X25061688Y98431058D01*
X24816775Y98421508D01*
X24572959Y98431725D01*
X24330079Y98461388D01*
X24087973Y98510173D01*
X23943013Y98548488D01*
X37524958Y98880100D02*
X37302396Y98862245D01*
X37080568Y98834399D01*
X36858530Y98808330D01*
X36734739Y98798946D01*
X87083195Y76792667D02*
X87126906Y77000607D01*
X87148669Y77207527D01*
X87145132Y77413146D01*
X87112946Y77617184D01*
X87048761Y77819361D01*
X87019676Y77886291D01*
X2099019Y98058122D02*
X1910716Y97911441D01*
X1727664Y97759139D01*
X1551143Y97600223D01*
X1382436Y97433701D01*
X1222824Y97258581D01*
X1073588Y97073871D01*
X936010Y96878577D01*
X811372Y96671707D01*
X87167858Y14495651D02*
X87148177Y14701831D01*
X87111401Y14813138D01*
X476250Y85844957D02*
X477566Y85623935D01*
X489035Y85401708D01*
X504062Y85178748D01*
X511519Y85054738D01*
X24687391Y994839D02*
X24904071Y1015125D01*
X25124390Y1014244D01*
X25346695Y1002778D01*
X25569335Y991307D01*
X86917378Y74196227D02*
X86899302Y74403945D01*
X86937042Y74617464D01*
X87019676Y74771257D01*
X1488721Y66879620D02*
X1411132Y66649703D01*
X1332933Y66421499D01*
X1247823Y66197752D01*
X1149505Y65981208D01*
X1031681Y65774610D01*
X888052Y65580704D01*
X821965Y65507309D01*
X86444668Y94717305D02*
X86376195Y94909758D01*
X86324911Y95103982D01*
X86292809Y95301750D01*
X86281882Y95504832D01*
X86285913Y95623946D01*
X87213721Y58434119D02*
X87230433Y58659245D01*
X87241800Y58884725D01*
X87249193Y59110400D01*
X87253986Y59336107D01*
X87257551Y59561685D01*
X87261261Y59786971D01*
X87263093Y59876968D01*
X557382Y95782701D02*
X544096Y95581292D01*
X567880Y95374569D01*
X664865Y95191598D01*
X786696Y95084207D01*
X26521818Y98594329D02*
X26295953Y98595202D01*
X26072111Y98583917D01*
X25850293Y98560478D01*
X25630501Y98524887D01*
X25505816Y98499094D01*
X72672209Y98724877D02*
X72472639Y98759993D01*
X72271455Y98784050D01*
X72069626Y98804073D01*
X71868120Y98827084D01*
X71667907Y98860108D01*
X71469954Y98910168D01*
X71391624Y98936535D01*
X57675623Y98559060D02*
X57428086Y98595749D01*
X57180301Y98629670D01*
X56932351Y98661690D01*
X56684318Y98692676D01*
X56436284Y98723498D01*
X56188334Y98755021D01*
X55940549Y98788114D01*
X55693013Y98823643D01*
X70245097Y99105861D02*
X70036659Y99103688D01*
X69827755Y99111870D01*
X69617906Y99125699D01*
X69500741Y99134089D01*
X87181961Y86896227D02*
X87124991Y87136702D01*
X87072009Y87378241D01*
X87021319Y87620361D01*
X86971226Y87862578D01*
X86920033Y88104407D01*
X86866044Y88345366D01*
X86843287Y88441396D01*
X2483557Y11634607D02*
X2394760Y11427088D01*
X2308987Y11221616D01*
X2223308Y11018747D01*
X2134792Y10819038D01*
X2040509Y10623047D01*
X2007294Y10558639D01*
X87076132Y91327116D02*
X87130449Y91521881D01*
X87184259Y91718424D01*
X87196064Y91775150D01*
X52740265Y98731918D02*
X52538274Y98687707D01*
X52334293Y98690738D01*
X52133035Y98748081D01*
X52024137Y98806009D01*
X87121995Y5542149D02*
X87130848Y5770937D01*
X87125839Y5997308D01*
X87107249Y6221819D01*
X87075358Y6445029D01*
X87030449Y6667495D01*
X87012635Y6741581D01*
M02*
